PathFileType	4	(X/Y/Z)	c:/Users/goper/Files/vsCode/490R/osim_files/C08/C08_SSWS_01.trc
DataRate	CameraRate	NumFrames	NumMarkers	Units                	OrigDataRate	OrigDataStartFrame	OrigNumFrames
250.00	250.00	10	36	mm	250.0	938	2500
                Frame#	Time	LPSIS			LASIS			LTH1			LTH2			LTH3			LTH4			LLFE			LMFE			LSH1			LSH2			LSH3			LSH4			LLMAL			LMMAL			LCAL			LMTP5			LTOE			LMTP1			RPSIS			RASIS			RTH1			RTH2			RTH3			RTH4			RLFE			RMFE			RSH1			RSH2			RSH3			RSH4			RLMAL			RMMAL			RCAL			RMTP1			RTOE			RMTP5		
		X1	Y1	Z1	X2	Y2	Z2	X3	Y3	Z3	X4	Y4	Z4	X5	Y5	Z5	X6	Y6	Z6	X7	Y7	Z7	X8	Y8	Z8	X9	Y9	Z9	X10	Y10	Z10	X11	Y11	Z11	X12	Y12	Z12	X13	Y13	Z13	X14	Y14	Z14	X15	Y15	Z15	X16	Y16	Z16	X17	Y17	Z17	X18	Y18	Z18	X19	Y19	Z19	X20	Y20	Z20	X21	Y21	Z21	X22	Y22	Z22	X23	Y23	Z23	X24	Y24	Z24	X25	Y25	Z25	X26	Y26	Z26	X27	Y27	Z27	X28	Y28	Z28	X29	Y29	Z29	X30	Y30	Z30	X31	Y31	Z31	X32	Y32	Z32	X33	Y33	Z33	X34	Y34	Z34	X35	Y35	Z35	X36	Y36	Z36

938	3.74800	1147.28772	1046.27124	192.61792	952.57660	998.90234	300.12195	1106.51978	737.02393	353.00214	1121.88245	662.05121	328.91330	1139.78149	592.67078	320.37326	1042.42505	651.64648	316.44797	1152.75073	543.16919	308.20813	1136.29651	533.48175	180.83783	1243.86975	436.58966	307.52066	1253.53955	390.86856	306.47656	1184.81165	421.70941	313.83572	1201.92224	378.97174	310.22308	1316.97766	123.50184	241.85948	1288.06726	131.92744	155.98521	1381.38391	112.03911	181.88811	1217.89343	46.43034	276.14694	1150.88806	57.14665	219.61446	0.00000	0.00000	0.00000	1142.22473	1040.20935	133.22447	938.95557	1000.79089	62.15080	945.98938	737.15216	-7.20638	919.16309	664.24677	8.38416	892.04840	590.13599	21.10838	849.32574	692.39307	33.43825	861.51642	530.67737	41.27977	0.00000	0.00000	0.00000	884.82562	436.41010	27.43943	863.62939	396.56680	22.16788	828.30487	458.80463	31.59869	813.55658	415.84177	27.15157	747.92181	112.71346	78.47343	721.93280	133.30707	164.64392	791.55750	69.38759	151.63530	583.52332	128.16771	147.88704	578.89215	148.27338	91.21248	614.68347	100.25021	37.03940
939	3.75200	1142.15051	1045.49634	192.45735	947.81067	998.53204	300.24600	1101.73267	736.29242	353.06491	1117.88513	661.86237	329.11081	1135.32800	592.34009	320.55136	1038.43030	651.27008	316.79776	1149.02039	543.06769	308.33078	1132.38538	533.25452	181.04025	1240.80798	437.01959	307.68173	1250.83875	391.40588	306.59756	1181.90039	421.73453	313.97501	1199.18213	378.93082	310.19724	1316.04846	124.29929	242.00499	1287.19702	132.69255	156.18256	1380.97656	113.46708	182.23775	1217.72607	46.40266	276.24033	1152.05017	56.64169	219.78764	0.00000	0.00000	0.00000	1136.48364	1039.16992	133.14156	933.58203	1000.59497	62.06944	940.73712	736.47461	-6.74603	914.15277	663.71082	8.74603	887.14441	589.68671	21.63787	844.42950	691.90466	34.09972	856.58002	530.16113	41.60333	0.00000	0.00000	0.00000	879.87866	435.70694	27.83130	858.65546	395.88184	22.63158	823.35455	458.15427	31.97824	808.55151	415.01544	27.60538	742.53821	111.92353	79.53217	716.72406	133.02098	165.44437	786.03143	68.55654	152.28427	578.10327	128.21840	148.60254	574.10181	148.19969	92.10217	609.47278	99.69673	37.86471
940	3.75600	1137.14673	1044.86487	192.20477	942.93750	998.09930	300.33871	1097.54541	736.21619	353.37772	1113.23584	661.50800	329.00803	1131.93237	592.33514	320.67831	0.00000	0.00000	0.00000	1145.25256	542.91406	308.52103	1127.94690	532.81293	181.67751	1237.66638	437.49774	307.82376	1247.34070	391.45999	306.90930	1179.28601	421.89197	314.11081	1198.56665	380.48804	311.04050	1315.38489	125.42217	242.16890	1286.31409	133.52728	156.41093	1380.25220	114.86167	182.21646	1217.57324	46.38019	276.35056	1151.98767	56.55928	219.81790	0.00000	0.00000	0.00000	1131.88232	1038.83289	132.78212	929.19208	999.84564	62.15401	936.00208	736.22552	-6.64922	909.01385	663.22174	9.21638	882.12689	589.32568	22.18996	839.43842	691.58069	34.79866	851.52667	529.72510	41.93800	847.99548	525.24310	180.47194	874.94208	435.14505	28.24883	853.76416	395.28659	23.05849	818.36084	457.54492	32.36251	803.61707	414.35358	27.96760	737.94336	111.16745	80.30843	712.16119	132.42458	166.15549	781.56976	68.28621	153.47160	573.48737	127.73045	149.45314	569.46954	147.51636	92.76631	604.03540	98.80291	38.54021
941	3.76000	1132.06775	1044.24768	191.96324	938.10309	997.77045	300.46118	1092.46667	735.68195	353.46872	1109.52026	661.42358	329.38104	1128.58093	592.64716	320.90546	0.00000	0.00000	0.00000	1141.40796	542.84076	308.72778	1123.87317	532.50354	181.95525	1234.44080	437.95081	308.00003	1245.22266	392.54074	306.95654	1176.14685	421.89111	314.33249	1193.68359	379.24277	310.57672	1314.51917	126.34428	242.39925	1285.40698	134.34438	156.65466	1379.20874	116.52936	182.55760	1217.42700	46.38842	276.51428	1151.96387	56.47173	219.82076	0.00000	0.00000	0.00000	1126.40271	1037.83923	132.68478	923.96008	999.78485	61.93564	930.78058	735.80396	-6.34401	903.72742	662.83728	9.66852	876.84491	588.97266	22.75260	834.41595	691.41675	35.98737	846.36108	529.35632	42.26774	842.76190	524.26410	180.11784	869.93695	434.62744	28.66536	849.22919	394.94385	23.28222	813.79462	457.35254	32.01290	798.72717	413.69208	28.37977	733.86688	110.30467	81.09330	708.11121	131.67879	166.87598	777.57275	67.50255	154.25648	569.53680	126.94604	150.40874	565.14191	146.22908	93.32535	600.54230	97.82746	39.65525
942	3.76400	1126.97046	1043.63306	191.72067	933.28870	997.37799	300.52359	1088.75623	735.76483	353.51276	1105.22107	661.21051	329.52209	1124.47083	592.45197	321.12662	0.00000	0.00000	0.00000	1137.36621	542.74048	308.88467	1119.64539	532.19177	182.23619	1231.12097	438.43613	308.22009	1241.51648	392.56210	307.30865	1172.97595	421.90912	314.55951	1190.80603	379.34641	310.80002	1313.56860	127.29832	242.66702	1284.19800	135.17336	156.19434	1378.35754	118.06337	182.84465	1217.26306	46.41417	276.66241	1150.70581	56.52991	219.64076	0.00000	0.00000	0.00000	1121.26123	1037.19238	132.46927	918.74823	999.25745	61.96426	925.25922	735.18066	-6.37956	897.58459	662.56787	9.65804	871.46661	588.72144	23.35668	828.61127	690.99811	36.62210	841.13519	529.06659	42.59932	837.66504	523.45013	179.91675	864.94073	434.16013	29.10257	844.32666	394.41110	23.73302	808.75745	456.74496	32.41714	793.81842	413.02139	28.82822	730.29163	109.37199	81.71400	704.57245	130.70598	167.55527	774.28595	66.79858	154.78981	566.33844	124.46989	150.61890	561.21143	144.54088	94.00098	597.00598	96.40324	40.54082
943	3.76800	1121.83630	1043.04907	191.45590	928.22876	996.94342	300.54919	1084.25000	735.54626	353.58176	1100.84570	661.04218	329.63565	1120.24756	592.25592	321.31537	0.00000	0.00000	0.00000	1133.24353	542.56134	309.07834	1115.40601	531.87921	182.51402	1227.76233	438.97989	308.42358	1238.48572	393.14127	307.51440	1169.35693	421.80182	314.82501	1188.02527	379.58475	311.13248	1312.53564	128.25348	242.96367	1283.13147	136.07468	156.71498	1377.59741	119.77239	183.21284	1217.04504	46.42430	276.81036	1150.64050	56.44269	219.65428	0.00000	0.00000	0.00000	1116.11182	1036.58582	132.25024	913.53931	998.27643	62.23756	919.58807	734.93079	-5.60310	892.17511	662.32288	10.10769	865.94385	588.51923	23.76205	823.71289	691.12854	37.40117	835.78387	528.82935	42.89181	832.27374	522.64380	179.50578	859.97443	433.75641	29.53666	839.54822	393.91214	24.15712	803.69934	456.12277	32.81973	788.96692	412.33237	29.28726	727.07324	108.26562	82.33048	701.42926	129.45772	168.21434	771.43866	66.24844	155.24876	563.30463	122.66726	151.59299	558.32379	142.76193	95.10155	593.86322	94.74068	41.34256
944	3.77200	1116.78186	1042.60950	191.11433	923.30945	996.56970	300.57474	1078.96558	734.97729	353.64212	1096.45288	660.84576	329.79761	1114.99597	591.74420	321.48892	1017.06104	649.28955	317.93637	1128.96838	542.31122	309.23010	1110.99072	531.47662	182.84903	1224.23071	439.48871	308.64050	1235.34705	393.70419	307.72290	1166.45276	422.16776	315.14804	1184.95105	379.74188	311.38156	1311.65076	129.46742	243.22328	1282.52332	137.03595	157.57568	1376.63574	121.40797	183.52309	1216.83606	46.43510	276.97034	1149.93884	56.59254	219.68573	0.00000	0.00000	0.00000	1111.31018	1036.33630	131.95508	908.17535	998.18451	61.93206	913.93610	734.67212	-5.32936	886.53687	662.10077	10.56221	860.29187	588.35358	24.07092	818.00708	691.01331	38.16160	830.33276	528.75452	43.35089	0.00000	0.00000	0.00000	855.01697	433.36902	30.00065	834.85083	393.43228	24.63129	798.21405	454.94775	34.01182	784.13153	411.60065	29.76232	724.41223	107.37331	82.74086	698.67664	128.11324	168.81610	769.26080	66.00759	155.62390	560.59399	119.83999	152.36696	555.36926	140.37659	96.08339	591.27997	92.92030	42.04575
945	3.77600	1111.51978	1042.03601	190.87103	918.33551	996.18188	300.62390	1074.30920	734.76617	353.69046	1091.88403	660.58771	329.99762	1111.48206	591.77264	321.74234	0.00000	0.00000	0.00000	1124.68762	542.12604	309.45267	1107.29700	531.37280	182.53719	1220.56042	440.01425	308.84622	1232.09790	394.27332	307.98184	1162.93982	422.14658	315.39679	1181.76843	379.83331	311.53693	1310.51587	130.44330	243.58495	1281.64136	137.92819	157.69661	1375.69836	123.19547	183.89432	1216.59607	46.45069	277.13123	1149.84155	56.59406	219.71458	0.00000	0.00000	0.00000	1105.96045	1035.47461	131.83607	902.81323	997.28278	62.08374	908.18030	734.46625	-5.06711	880.82867	661.89215	10.96779	854.40656	588.16980	24.43746	812.37158	691.03510	38.86290	824.69305	528.56757	43.84329	0.00000	0.00000	0.00000	850.16461	433.03674	30.39337	830.20367	392.98886	25.08001	793.19873	454.26770	34.49711	779.41559	410.87048	30.26801	722.10858	106.53364	83.16373	696.28717	126.67722	169.51892	767.64764	65.90022	155.94357	558.38104	116.77887	153.39317	552.65466	137.56108	97.12714	589.32520	90.87769	42.77456
946	3.78000	1106.17114	1041.35840	190.70337	913.18475	995.76105	300.57288	1069.61963	734.54614	353.73010	1086.54614	660.02704	329.86719	1106.01233	591.23309	321.93765	1009.44415	650.47125	320.32745	1121.39893	542.95355	311.02890	1102.78943	530.98138	182.75516	1216.84143	440.45258	309.11151	1228.87488	394.61441	308.38611	1159.30310	421.83698	315.57626	1178.58020	380.08585	311.90985	1311.04077	133.09012	244.52287	1280.57446	138.92836	158.10164	1374.68958	124.95052	184.26036	1216.34802	46.49873	277.30142	1149.70715	56.60060	219.73515	0.00000	0.00000	0.00000	1100.63879	1034.93042	131.63939	897.33502	996.88397	61.90572	902.18097	733.99457	-5.01108	875.01849	661.77753	11.32148	848.61035	588.06451	24.54908	806.61914	691.04303	39.53678	819.00305	528.32544	44.33945	0.00000	0.00000	0.00000	845.29486	432.72531	30.82442	825.69391	392.54657	25.53430	788.25702	453.55426	34.99453	774.82159	410.09155	30.82203	720.32874	105.79360	83.49197	694.27759	125.08603	170.18349	766.41565	65.74539	156.40796	556.53247	113.11508	154.17804	550.38428	134.35283	98.15614	587.90247	88.60891	43.41458
947	3.78400	1100.86536	1040.84546	190.44365	908.14459	995.32977	300.56946	1065.47485	734.44067	353.74869	1082.50403	660.06616	330.25333	1101.03955	590.59589	322.13412	0.00000	0.00000	0.00000	0.00000	0.00000	0.00000	1098.46997	530.88214	183.15616	1213.00940	440.93683	309.39493	1225.99976	395.82452	308.44617	1155.61267	421.73099	315.85223	1175.28699	380.18854	312.11237	1309.26562	133.98117	244.79793	1278.94153	139.87714	157.99854	1373.54871	126.67249	184.49852	1216.54712	46.91312	277.58405	1149.54956	56.63182	219.75909	0.00000	0.00000	0.00000	1094.97327	1034.37085	131.46475	891.80066	996.90204	61.48244	896.53400	734.13800	-4.55477	869.19055	661.68848	11.65838	842.66797	587.85138	24.71882	800.84839	691.10773	40.18116	813.31378	528.06805	44.87377	0.00000	0.00000	0.00000	839.99573	432.08957	31.58821	821.21820	392.09805	25.98404	783.78754	453.27386	34.76294	770.16699	409.25443	31.43029	719.07806	104.87344	84.01925	692.68372	123.30021	170.86728	765.49823	65.32386	157.08656	554.96979	109.27219	154.81413	548.57147	130.84734	99.01003	587.08344	86.42380	43.88441
